<svg width="18.000000" height="18.000000" viewBox="0 0 18 18" fill="none" xmlns="http://www.w3.org/2000/svg" xmlns:xlink="http://www.w3.org/1999/xlink">
	<desc>
			Created with Pixso.
	</desc>
	<defs/>
	<rect id="Rectangle" width="18.000000" height="18.000000" fill="#C4C4C4" fill-opacity="0"/>
	<path id="Vector" d="M1 2L17 2C17.55 2 18 2.44 18 3C18 3.55 17.55 4 17 4L1 4C0.44 4 0 3.55 0 3C0 2.44 0.44 2 1 2ZM1 8L17 8C17.55 8 18 8.44 18 9C18 9.55 17.55 10 17 10L1 10C0.44 10 0 9.55 0 9C0 8.44 0.44 8 1 8ZM1 14L17 14C17.55 14 18 14.44 18 15C18 15.55 17.55 16 17 16L1 16C0.44 16 0 15.55 0 15C0 14.44 0.44 14 1 14Z" fill="#03B2A5" fill-opacity="1.000000" fill-rule="nonzero"/>
</svg>
