<svg width="51.000000" height="36.000000" viewBox="0 0 51 36" fill="none" xmlns="http://www.w3.org/2000/svg" xmlns:xlink="http://www.w3.org/1999/xlink">
	<desc>
			Created with Pixso.
	</desc>
	<defs>
		<clipPath id="clip4492_2245">
			<rect id="logo" rx="-0.500000" width="50.000000" height="35.000000" transform="translate(0.500000 0.500000)" fill="white" fill-opacity="0"/>
		</clipPath>
	</defs>
	<rect id="logo" rx="-0.500000" width="50.000000" height="35.000000" transform="translate(0.500000 0.500000)" fill="#FFFFFF" fill-opacity="0"/>
	<g clip-path="url(#clip4492_2245)">
		<path id="Vector" d="M13.33 1.28C13.33 1.11 13.29 0.96 13.22 0.81C13.16 0.66 13.06 0.53 12.93 0.43C12.69 0.2 12.37 0.07 12.03 0.08C11.8 0.07 11.57 0.14 11.37 0.26C11.15 0.4 10.98 0.61 10.9 0.86L6.73 10.21L2.56 0.84C2.47 0.61 2.31 0.41 2.1 0.27C1.89 0.13 1.65 0.07 1.4 0.08C1.04 0.07 0.7 0.2 0.43 0.43C0.29 0.53 0.18 0.67 0.11 0.82C0.03 0.97 -0.01 1.14 -0.01 1.31C-0.01 1.48 0.03 1.64 0.1 1.79L5.31 12.97L3.45 16.98C3.37 17.15 3.32 17.33 3.31 17.52C3.31 17.68 3.35 17.84 3.41 17.98C3.48 18.12 3.58 18.25 3.71 18.34C3.95 18.55 4.26 18.66 4.58 18.66C4.82 18.66 5.05 18.59 5.24 18.46C5.46 18.31 5.62 18.11 5.72 17.87L13.22 1.79C13.29 1.63 13.33 1.45 13.33 1.28Z" fill="#2963A3" fill-opacity="1.000000" fill-rule="nonzero"/>
		<path id="Vector" d="M39.5 12.51C39.49 12.68 39.52 12.84 39.58 13C39.64 13.16 39.73 13.3 39.85 13.42C39.98 13.54 40.12 13.63 40.28 13.68C40.44 13.74 40.6 13.77 40.77 13.76C41.14 13.78 41.5 13.65 41.77 13.4C41.9 13.29 42 13.14 42.06 12.98C42.13 12.83 42.16 12.65 42.16 12.48L42.16 1.39C42.17 1.21 42.14 1.03 42.08 0.86C42.01 0.69 41.92 0.53 41.79 0.41C41.51 0.17 41.16 0.05 40.8 0.05C40.43 0.05 40.08 0.18 39.81 0.42C39.68 0.54 39.58 0.7 39.52 0.86C39.45 1.03 39.42 1.21 39.43 1.39L39.43 7.79C39.43 8.94 39.11 9.85 38.47 10.55C38.14 10.89 37.75 11.16 37.31 11.34C36.87 11.52 36.39 11.6 35.92 11.58C35.02 11.58 34.36 11.33 33.92 10.82C33.49 10.31 33.28 9.52 33.28 8.45L33.28 1.39C33.29 1.21 33.26 1.03 33.2 0.86C33.13 0.69 33.04 0.53 32.91 0.41C32.78 0.28 32.62 0.19 32.45 0.13C32.28 0.07 32.1 0.04 31.92 0.05C31.74 0.04 31.55 0.06 31.38 0.13C31.21 0.19 31.05 0.28 30.91 0.41C30.78 0.53 30.69 0.69 30.62 0.86C30.56 1.03 30.53 1.21 30.54 1.39L30.54 8.48C30.54 12.05 32.15 13.83 35.35 13.83C36.2 13.84 37.04 13.63 37.79 13.23C38.52 12.83 39.11 12.22 39.5 11.48L39.5 12.51Z" fill="#2963A3" fill-opacity="1.000000" fill-rule="nonzero"/>
		<path id="Vector" d="M15.35 33.89L14.59 33.83C13.87 33.78 13.34 33.55 12.99 33.15C12.64 32.75 12.47 32.12 12.47 31.27L12.47 24.67L15.13 24.67C15.44 24.7 15.76 24.6 16.01 24.41C16.11 24.31 16.2 24.19 16.25 24.05C16.3 23.91 16.33 23.77 16.32 23.62C16.32 23.47 16.3 23.33 16.25 23.19C16.19 23.06 16.11 22.93 16.01 22.83C15.76 22.63 15.45 22.53 15.13 22.54L12.46 22.54L12.46 19.74C12.47 19.56 12.44 19.37 12.37 19.21C12.31 19.04 12.21 18.88 12.08 18.76C11.8 18.51 11.45 18.38 11.08 18.4C10.9 18.39 10.72 18.42 10.55 18.48C10.38 18.54 10.23 18.63 10.1 18.75C9.97 18.88 9.87 19.04 9.81 19.2C9.75 19.37 9.72 19.55 9.73 19.73L9.73 22.54L8.11 22.54C7.79 22.52 7.48 22.63 7.24 22.83C7.13 22.93 7.05 23.05 6.99 23.19C6.94 23.33 6.91 23.47 6.92 23.62C6.92 24.32 7.32 24.67 8.11 24.67L9.73 24.67L9.73 31.08C9.73 32.62 10.09 33.79 10.81 34.58C11.53 35.37 12.62 35.82 14.07 35.93L14.8 35.98C15.23 36.05 15.66 35.97 16.03 35.75C16.17 35.66 16.28 35.54 16.35 35.39C16.42 35.25 16.46 35.09 16.45 34.92C16.46 34.79 16.44 34.66 16.39 34.53C16.35 34.41 16.28 34.3 16.19 34.2C15.95 34 15.66 33.89 15.35 33.89Z" fill="#2963A3" fill-opacity="1.000000" fill-rule="nonzero"/>
		<path id="Vector" d="M36.01 16.49C35.65 16.48 35.3 16.6 35.02 16.83C34.89 16.96 34.78 17.11 34.72 17.29C34.65 17.46 34.62 17.64 34.63 17.83L34.63 34.68C34.62 34.86 34.65 35.04 34.72 35.21C34.78 35.38 34.89 35.54 35.02 35.66C35.3 35.88 35.65 36 36.01 35.98C36.36 36 36.71 35.88 36.98 35.66C37.11 35.53 37.21 35.38 37.28 35.21C37.34 35.04 37.37 34.86 37.36 34.68L37.36 17.83C37.37 17.64 37.34 17.46 37.28 17.29C37.21 17.12 37.11 16.96 36.98 16.83C36.71 16.6 36.36 16.48 36.01 16.49Z" fill="#2963A3" fill-opacity="1.000000" fill-rule="nonzero"/>
		<path id="Vector" d="M50.51 33.69L45.22 28.98L50.02 24.54C50.16 24.42 50.28 24.27 50.36 24.11C50.44 23.94 50.48 23.76 50.48 23.58C50.48 23.24 50.34 22.92 50.1 22.68C49.87 22.45 49.55 22.31 49.21 22.3C48.88 22.32 48.56 22.47 48.32 22.71L42.17 28.52L42.17 17.83C42.18 17.64 42.16 17.46 42.09 17.29C42.03 17.12 41.93 16.96 41.79 16.83C41.53 16.6 41.18 16.48 40.82 16.49C40.46 16.48 40.11 16.6 39.84 16.83C39.7 16.96 39.6 17.11 39.53 17.29C39.46 17.46 39.43 17.64 39.45 17.83L39.45 34.65C39.43 34.84 39.46 35.02 39.53 35.2C39.6 35.37 39.7 35.52 39.84 35.65C40.11 35.88 40.47 36 40.82 35.99C41.18 36 41.53 35.88 41.79 35.65C41.93 35.52 42.03 35.37 42.09 35.19C42.16 35.02 42.18 34.84 42.17 34.65L42.17 29.61L48.89 35.6C49.14 35.85 49.47 35.99 49.81 35.98C49.97 35.99 50.13 35.95 50.27 35.89C50.41 35.82 50.54 35.72 50.65 35.6C50.88 35.36 51.01 35.04 51.01 34.7C51 34.5 50.96 34.31 50.87 34.14C50.79 33.96 50.66 33.81 50.51 33.69Z" fill="#2963A3" fill-opacity="1.000000" fill-rule="nonzero"/>
		<path id="Vector" d="M15.33 13.82L22.33 13.82C23.52 13.84 24.69 13.55 25.74 12.97C26.71 12.41 27.5 11.57 28.01 10.56C28.56 9.43 28.83 8.18 28.8 6.92C28.83 5.65 28.56 4.39 28.01 3.26C27.5 2.24 26.72 1.4 25.74 0.84C24.69 0.26 23.52 -0.03 22.33 0L20.12 0C18.92 -0.03 17.75 0.26 16.7 0.84C15.73 1.4 14.94 2.24 14.44 3.26C13.88 4.39 13.61 5.65 13.64 6.92L13.64 10.77C13.64 13 14.2 13.82 15.33 13.82ZM17.36 3.41C18.01 2.61 18.93 2.2 20.12 2.2L22.33 2.2C23.51 2.2 24.43 2.61 25.08 3.42C25.73 4.23 26.05 5.4 26.05 6.92C26.05 8.46 25.73 9.64 25.09 10.44C24.45 11.23 23.53 11.64 22.33 11.64L16.42 11.64C16.42 11.64 16.39 8.46 16.39 6.92C16.39 5.38 16.72 4.23 17.36 3.41Z" fill="#2963A3" fill-opacity="1.000000" fill-rule="nonzero"/>
		<path id="Vector" d="M29.6 23.02C28.56 22.44 27.38 22.15 26.19 22.17L23.98 22.17C22.79 22.15 21.61 22.44 20.57 23.02C19.59 23.58 18.8 24.42 18.3 25.43C17.76 26.57 17.49 27.83 17.52 29.1C17.49 30.36 17.76 31.6 18.3 32.74C18.8 33.75 19.59 34.59 20.57 35.15C21.61 35.73 22.79 36.02 23.98 35.99L30.98 35.99C32.11 35.99 32.67 35.17 32.67 32.94L32.67 29.1C32.7 27.83 32.42 26.57 31.87 25.43C31.37 24.42 30.58 23.58 29.6 23.02ZM29.88 33.81L23.98 33.81C22.78 33.81 21.86 33.41 21.22 32.61C20.57 31.81 20.26 30.64 20.26 29.1C20.26 27.57 20.58 26.4 21.23 25.59C21.88 24.79 22.8 24.38 23.98 24.38L26.19 24.38C27.38 24.38 28.3 24.78 28.95 25.59C29.59 26.4 29.92 27.57 29.92 29.1C29.92 30.64 29.88 33.81 29.88 33.81Z" fill="#2963A3" fill-opacity="1.000000" fill-rule="nonzero"/>
	</g>
</svg>
