<svg width="112.754395" height="19.090332" viewBox="0 0 112.754 19.0903" fill="none" xmlns="http://www.w3.org/2000/svg" xmlns:xlink="http://www.w3.org/1999/xlink">
	<desc>
			Created with Pixso.
	</desc>
	<defs/>
	<path id="Vector" d="M3.63 15.45C3.95 15.55 4.3 15.6 4.72 15.6C5.23 15.6 5.65 15.45 5.97 15.14C6.28 14.82 6.48 14.4 6.59 13.95L0 0L4.38 0L8.61 10.01L12.31 0L16.49 0L10.55 13.74C9.76 15.56 8.96 16.91 8.08 17.77C7.19 18.65 6.24 19.09 5.17 19.09C4.81 19.09 4.52 19.09 4.29 19.03C4.03 19 3.82 18.95 3.64 18.9L3.14 18.75C3.01 18.7 2.88 18.65 2.76 18.62L2.76 15.09C2.99 15.25 3.27 15.38 3.61 15.46L3.63 15.45Z" fill="#FFFFFF" fill-opacity="1.000000" fill-rule="nonzero"/>
	<path id="Vector" d="M23.64 13.38C23.37 13.46 23.09 13.51 22.78 13.58C22.47 13.63 22.13 13.68 21.8 13.71C21.46 13.76 21.13 13.76 20.81 13.76C20.01 13.76 19.33 13.68 18.71 13.56C18.11 13.41 17.59 13.2 17.18 12.89C16.76 12.58 16.45 12.16 16.24 11.64C16.04 11.14 15.93 10.53 15.93 9.8L15.93 4.83L19.5 4.83L19.5 9.1C19.5 9.49 19.55 9.83 19.66 10.06C19.74 10.32 19.89 10.53 20.09 10.68C20.29 10.83 20.53 10.94 20.84 10.99C21.16 11.04 21.51 11.07 21.93 11.07C22.55 11.07 23.02 11.02 23.38 10.92C23.75 10.79 24.03 10.66 24.23 10.54L24.23 4.83L27.81 4.83L27.81 18.63L24.23 18.63L24.23 13.19C24.08 13.24 23.87 13.32 23.62 13.39L23.64 13.38Z" fill="#FFFFFF" fill-opacity="1.000000" fill-rule="nonzero"/>
	<path id="Vector" d="M41.68 16.9C41.71 17.17 41.78 17.4 41.86 17.52C41.95 17.7 42.02 17.81 42.13 17.89C42.23 17.97 42.31 18.02 42.44 18.04L42.44 18.61L38.47 18.61L38.27 17.96C38.17 17.69 38.14 17.39 38.14 16.99L37.34 17.8C37.05 18.03 36.77 18.23 36.43 18.41C36.1 18.6 35.73 18.75 35.29 18.85C34.86 18.95 34.34 19 33.74 19C33.14 19 32.55 18.92 32.02 18.74C31.51 18.56 31.07 18.27 30.67 17.94C30.31 17.57 30 17.14 29.79 16.59C29.59 16.07 29.48 15.45 29.48 14.75C29.48 14.18 29.56 13.66 29.74 13.16C29.92 12.67 30.18 12.26 30.49 11.9C30.83 11.53 31.22 11.23 31.68 10.99C32.15 10.73 32.66 10.58 33.26 10.49L36.77 9.98C36.9 9.95 37.03 9.95 37.18 9.9C37.34 9.86 37.47 9.81 37.6 9.71C37.73 9.63 37.83 9.53 37.91 9.4C38 9.25 38.05 9.06 38.05 8.83C38.05 8.6 38 8.39 37.94 8.21C37.86 8.01 37.74 7.84 37.58 7.71C37.4 7.56 37.19 7.45 36.91 7.38C36.62 7.3 36.26 7.28 35.84 7.28C35.34 7.28 34.99 7.33 34.71 7.41C34.39 7.51 34.16 7.67 34 7.82C33.82 8.01 33.69 8.21 33.62 8.42L33.47 9.17L29.89 9.17C29.89 9.02 29.92 8.79 29.97 8.47C30.02 8.19 30.13 7.85 30.29 7.49C30.42 7.15 30.65 6.79 30.91 6.42C31.17 6.06 31.51 5.72 31.97 5.41C32.39 5.12 32.94 4.86 33.56 4.68C34.18 4.49 34.91 4.39 35.79 4.36C37.01 4.36 38.03 4.49 38.8 4.73C39.55 4.99 40.15 5.33 40.58 5.71C41 6.13 41.29 6.56 41.44 7.06C41.57 7.56 41.64 8.05 41.64 8.54L41.64 15.86C41.64 16.27 41.67 16.61 41.72 16.87L41.68 16.9ZM37.38 12.18C37.14 12.28 36.86 12.38 36.49 12.44L35.54 12.63C35.12 12.71 34.76 12.78 34.45 12.89C34.14 12.99 33.88 13.12 33.67 13.28C33.47 13.46 33.3 13.66 33.2 13.9C33.1 14.13 33.05 14.41 33.05 14.78C33.05 15.06 33.1 15.33 33.18 15.53C33.28 15.76 33.42 15.92 33.6 16.08C33.75 16.21 33.93 16.34 34.15 16.39C34.38 16.48 34.61 16.5 34.88 16.5C35.01 16.5 35.19 16.47 35.4 16.44C35.6 16.41 35.81 16.36 36.07 16.29C36.3 16.19 36.53 16.09 36.77 15.93C37 15.79 37.2 15.59 37.39 15.36C37.59 15.12 37.75 14.84 37.85 14.48C37.95 14.14 38.04 13.74 38.04 13.29L38.04 11.89C37.83 12.02 37.6 12.12 37.39 12.2L37.38 12.18Z" fill="#FFFFFF" fill-opacity="1.000000" fill-rule="nonzero"/>
	<path id="Vector" d="M51.69 8.74C51.59 8.45 51.43 8.22 51.26 8.04C51.05 7.83 50.82 7.7 50.55 7.6C50.27 7.52 49.94 7.47 49.54 7.47C48.94 7.47 48.47 7.6 48.12 7.89C47.75 8.17 47.47 8.5 47.28 8.92C47.08 9.36 46.97 9.82 46.9 10.32C46.85 10.82 46.8 11.28 46.8 11.72C46.8 12.17 46.83 12.66 46.88 13.14C46.93 13.66 47.03 14.1 47.24 14.52C47.43 14.93 47.68 15.3 48.08 15.55C48.44 15.84 48.93 15.97 49.56 15.97C49.98 15.97 50.34 15.89 50.65 15.7C50.93 15.55 51.19 15.34 51.4 15.1C51.6 14.84 51.76 14.59 51.86 14.3C51.95 14.04 52 13.79 52 13.55L55.73 13.55C55.73 13.79 55.7 14.07 55.63 14.43C55.53 14.82 55.4 15.19 55.22 15.6C55.03 15.99 54.78 16.4 54.48 16.82C54.15 17.24 53.78 17.6 53.32 17.91C52.85 18.24 52.33 18.51 51.71 18.71C51.09 18.91 50.36 19.02 49.56 19.02C48.52 19.02 47.59 18.87 46.79 18.56C45.99 18.22 45.3 17.76 44.77 17.14C44.22 16.52 43.8 15.77 43.52 14.83C43.23 13.93 43.08 12.88 43.08 11.72C43.08 10.57 43.23 9.49 43.55 8.59C43.86 7.7 44.3 6.93 44.87 6.3C45.44 5.68 46.12 5.21 46.92 4.9C47.7 4.56 48.6 4.4 49.57 4.4C49.99 4.4 50.42 4.45 50.89 4.5C51.33 4.55 51.77 4.69 52.21 4.84C52.65 5.02 53.06 5.22 53.48 5.49C53.86 5.75 54.23 6.09 54.57 6.47C54.88 6.86 55.13 7.33 55.35 7.84C55.55 8.36 55.68 8.98 55.73 9.68L52 9.68C51.92 9.32 51.84 8.98 51.71 8.73L51.69 8.74Z" fill="#FFFFFF" fill-opacity="1.000000" fill-rule="nonzero"/>
	<path id="Vector" d="M68.2 4.82L68.2 7.72L64.03 7.72L64.03 18.62L60.45 18.62L60.45 7.72L56.28 7.72L56.28 4.82L68.21 4.82L68.2 4.82Z" fill="#FFFFFF" fill-opacity="1.000000" fill-rule="nonzero"/>
	<path id="Vector" d="M78.15 9.8L78.15 4.83L81.73 4.83L81.73 18.63L78.15 18.63L78.15 12.72L72.89 12.72L72.89 18.63L69.32 18.63L69.32 4.83L72.89 4.83L72.89 9.8L78.15 9.8Z" fill="#FFFFFF" fill-opacity="1.000000" fill-rule="nonzero"/>
	<path id="Vector" d="M87.76 13.33L92.79 4.82L96.55 4.82L96.55 18.62L92.98 18.62L92.98 10.29L92.93 10.29L88.05 18.62L84.13 18.62L84.13 4.82L87.71 4.82L87.71 13.33L87.76 13.33Z" fill="#FFFFFF" fill-opacity="1.000000" fill-rule="nonzero"/>
	<path id="Vector" d="M107.74 4.82L112.52 4.82L106.81 10.55L112.75 18.61L108.08 18.61L104.04 12.77L102.59 14.25L102.59 18.61L99.01 18.61L99.01 4.81L102.59 4.81L102.59 10.05L107.74 4.81L107.74 4.82Z" fill="#FFFFFF" fill-opacity="1.000000" fill-rule="nonzero"/>
</svg>
